<mxfile host="app.diagrams.net" modified="2024-04-15T13:08:07.587Z" agent="Mozilla/5.0 (Macintosh; Intel Mac OS X 10_15_7) AppleWebKit/537.36 (KHTML, like Gecko) Chrome/123.0.0.0 Safari/537.36" version="24.2.5" etag="Wq027cGCywxBTl_GH_16" type="github">
  <diagram name="第 1 页" id="vKzClg0LOLqhk4ITw8iK">
    <mxGraphModel>
      <root>
        <mxCell id="0" />
        <mxCell id="1" parent="0" />
      </root>
    </mxGraphModel>
  </diagram>
</mxfile>
